<svg xmlns="http://www.w3.org/2000/svg" viewBox="0 0 512 512" role="img" aria-label="Weather Shelter Locator icon">
  <defs>
    <linearGradient id="bg" x1="0" x2="1" y1="0" y2="1">
      <stop offset="0%" stop-color="#047857" />
      <stop offset="100%" stop-color="#16a34a" />
    </linearGradient>
  </defs>
  <rect width="512" height="512" rx="110" fill="url(#bg)" />
  <path d="M130 265c0-70 57-127 126-127 54 0 100 34 117 82 39 5 69 38 69 78 0 45-37 82-82 82H195c-36 0-65-29-65-65 0-24 13-45 32-57-20-14-32-36-32-58z" fill="#ecfdf5" opacity="0.95"/>
  <path d="M256 174c-45 0-81 36-81 81s36 81 81 81 81-36 81-81-36-81-81-81zm0 32c27 0 49 22 49 49s-22 49-49 49-49-22-49-49 22-49 49-49z" fill="#166534"/>
  <circle cx="256" cy="255" r="24" fill="#22c55e" />
</svg>
